<mxfile host="65bd71144e">
    <diagram name="Сторінка-1" id="4SQH4XhcyxJXMiMxo9WU">
        <mxGraphModel dx="1453" dy="843" grid="1" gridSize="10" guides="1" tooltips="1" connect="1" arrows="1" fold="1" page="1" pageScale="1" pageWidth="827" pageHeight="1169" math="0" shadow="0">
            <root>
                <mxCell id="0"/>
                <mxCell id="1" parent="0"/>
                <mxCell id="x1BT2gomkGjuVuvGww1u-2" value="User" style="shape=umlLifeline;perimeter=lifelinePerimeter;whiteSpace=wrap;container=1;dropTarget=0;collapsible=0;recursiveResize=0;outlineConnect=0;portConstraint=eastwest;newEdgeStyle={&quot;edgeStyle&quot;:&quot;elbowEdgeStyle&quot;,&quot;elbow&quot;:&quot;vertical&quot;,&quot;curved&quot;:0,&quot;rounded&quot;:0};size=65;" parent="1" vertex="1">
                    <mxGeometry x="20" y="20" width="150" height="3601" as="geometry"/>
                </mxCell>
                <mxCell id="x1BT2gomkGjuVuvGww1u-3" value="MainApplication" style="shape=umlLifeline;perimeter=lifelinePerimeter;whiteSpace=wrap;container=1;dropTarget=0;collapsible=0;recursiveResize=0;outlineConnect=0;portConstraint=eastwest;newEdgeStyle={&quot;edgeStyle&quot;:&quot;elbowEdgeStyle&quot;,&quot;elbow&quot;:&quot;vertical&quot;,&quot;curved&quot;:0,&quot;rounded&quot;:0};size=65;" parent="1" vertex="1">
                    <mxGeometry x="292" y="20" width="150" height="3601" as="geometry"/>
                </mxCell>
                <mxCell id="x1BT2gomkGjuVuvGww1u-4" value="InputManager" style="shape=umlLifeline;perimeter=lifelinePerimeter;whiteSpace=wrap;container=1;dropTarget=0;collapsible=0;recursiveResize=0;outlineConnect=0;portConstraint=eastwest;newEdgeStyle={&quot;edgeStyle&quot;:&quot;elbowEdgeStyle&quot;,&quot;elbow&quot;:&quot;vertical&quot;,&quot;curved&quot;:0,&quot;rounded&quot;:0};size=65;" parent="1" vertex="1">
                    <mxGeometry x="558" y="20" width="150" height="3601" as="geometry"/>
                </mxCell>
                <mxCell id="x1BT2gomkGjuVuvGww1u-5" value="InputHandler" style="shape=umlLifeline;perimeter=lifelinePerimeter;whiteSpace=wrap;container=1;dropTarget=0;collapsible=0;recursiveResize=0;outlineConnect=0;portConstraint=eastwest;newEdgeStyle={&quot;edgeStyle&quot;:&quot;elbowEdgeStyle&quot;,&quot;elbow&quot;:&quot;vertical&quot;,&quot;curved&quot;:0,&quot;rounded&quot;:0};size=65;" parent="1" vertex="1">
                    <mxGeometry x="882" y="20" width="150" height="3601" as="geometry"/>
                </mxCell>
                <mxCell id="x1BT2gomkGjuVuvGww1u-6" value="MoleculeUtils" style="shape=umlLifeline;perimeter=lifelinePerimeter;whiteSpace=wrap;container=1;dropTarget=0;collapsible=0;recursiveResize=0;outlineConnect=0;portConstraint=eastwest;newEdgeStyle={&quot;edgeStyle&quot;:&quot;elbowEdgeStyle&quot;,&quot;elbow&quot;:&quot;vertical&quot;,&quot;curved&quot;:0,&quot;rounded&quot;:0};size=65;" parent="1" vertex="1">
                    <mxGeometry x="1199" y="20" width="150" height="3601" as="geometry"/>
                </mxCell>
                <mxCell id="x1BT2gomkGjuVuvGww1u-7" value="PredictionService" style="shape=umlLifeline;perimeter=lifelinePerimeter;whiteSpace=wrap;container=1;dropTarget=0;collapsible=0;recursiveResize=0;outlineConnect=0;portConstraint=eastwest;newEdgeStyle={&quot;edgeStyle&quot;:&quot;elbowEdgeStyle&quot;,&quot;elbow&quot;:&quot;vertical&quot;,&quot;curved&quot;:0,&quot;rounded&quot;:0};size=65;" parent="1" vertex="1">
                    <mxGeometry x="1399" y="20" width="150" height="3601" as="geometry"/>
                </mxCell>
                <mxCell id="x1BT2gomkGjuVuvGww1u-8" value="FluoriclogppkaAPI" style="shape=umlLifeline;perimeter=lifelinePerimeter;whiteSpace=wrap;container=1;dropTarget=0;collapsible=0;recursiveResize=0;outlineConnect=0;portConstraint=eastwest;newEdgeStyle={&quot;edgeStyle&quot;:&quot;elbowEdgeStyle&quot;,&quot;elbow&quot;:&quot;vertical&quot;,&quot;curved&quot;:0,&quot;rounded&quot;:0};size=65;" parent="1" vertex="1">
                    <mxGeometry x="1663" y="20" width="150" height="3601" as="geometry"/>
                </mxCell>
                <mxCell id="x1BT2gomkGjuVuvGww1u-9" value="DisplayService" style="shape=umlLifeline;perimeter=lifelinePerimeter;whiteSpace=wrap;container=1;dropTarget=0;collapsible=0;recursiveResize=0;outlineConnect=0;portConstraint=eastwest;newEdgeStyle={&quot;edgeStyle&quot;:&quot;elbowEdgeStyle&quot;,&quot;elbow&quot;:&quot;vertical&quot;,&quot;curved&quot;:0,&quot;rounded&quot;:0};size=65;" parent="1" vertex="1">
                    <mxGeometry x="1863" y="20" width="150" height="3601" as="geometry"/>
                </mxCell>
                <mxCell id="x1BT2gomkGjuVuvGww1u-10" value="alt" style="shape=umlFrame;dashed=1;pointerEvents=0;dropTarget=0;strokeColor=#B3B3B3;height=20;width=30" parent="1" vertex="1">
                    <mxGeometry x="84" y="444" width="1317" height="1197" as="geometry"/>
                </mxCell>
                <mxCell id="x1BT2gomkGjuVuvGww1u-11" value="[SMILES Input]" style="text;strokeColor=none;fillColor=none;align=center;verticalAlign=middle;whiteSpace=wrap;" parent="x1BT2gomkGjuVuvGww1u-10" vertex="1">
                    <mxGeometry x="30" width="1287" height="20" as="geometry"/>
                </mxCell>
                <mxCell id="x1BT2gomkGjuVuvGww1u-12" value="[SDF File Upload]" style="shape=line;dashed=1;whiteSpace=wrap;verticalAlign=top;labelPosition=center;verticalLabelPosition=middle;align=center;strokeColor=#B3B3B3;" parent="x1BT2gomkGjuVuvGww1u-10" vertex="1">
                    <mxGeometry y="376" width="1317" height="4" as="geometry"/>
                </mxCell>
                <mxCell id="x1BT2gomkGjuVuvGww1u-13" value="[Molecule Editor]" style="shape=line;dashed=1;whiteSpace=wrap;verticalAlign=top;labelPosition=center;verticalLabelPosition=middle;align=center;strokeColor=#B3B3B3;" parent="x1BT2gomkGjuVuvGww1u-10" vertex="1">
                    <mxGeometry y="747" width="1317" height="4" as="geometry"/>
                </mxCell>
                <mxCell id="x1BT2gomkGjuVuvGww1u-14" value="opt" style="shape=umlFrame;dashed=1;pointerEvents=0;dropTarget=0;strokeColor=#B3B3B3;height=20;width=30" parent="1" vertex="1">
                    <mxGeometry x="84" y="3371" width="1865" height="155" as="geometry"/>
                </mxCell>
                <mxCell id="x1BT2gomkGjuVuvGww1u-15" value="[Download Features]" style="text;strokeColor=none;fillColor=none;align=center;verticalAlign=middle;whiteSpace=wrap;" parent="x1BT2gomkGjuVuvGww1u-14" vertex="1">
                    <mxGeometry x="30" width="1835" height="20" as="geometry"/>
                </mxCell>
                <mxCell id="x1BT2gomkGjuVuvGww1u-16" value="Launch Application" style="verticalAlign=bottom;edgeStyle=elbowEdgeStyle;elbow=vertical;curved=0;rounded=0;endArrow=block;" parent="1" source="x1BT2gomkGjuVuvGww1u-2" target="x1BT2gomkGjuVuvGww1u-3" edge="1">
                    <mxGeometry relative="1" as="geometry">
                        <Array as="points">
                            <mxPoint x="240" y="178"/>
                        </Array>
                    </mxGeometry>
                </mxCell>
                <mxCell id="x1BT2gomkGjuVuvGww1u-17" value="apply_custom_styles()" style="curved=1;endArrow=block;rounded=0;" parent="1" source="x1BT2gomkGjuVuvGww1u-3" target="x1BT2gomkGjuVuvGww1u-3" edge="1">
                    <mxGeometry relative="1" as="geometry">
                        <Array as="points">
                            <mxPoint x="418" y="232"/>
                            <mxPoint x="418" y="262"/>
                        </Array>
                    </mxGeometry>
                </mxCell>
                <mxCell id="x1BT2gomkGjuVuvGww1u-18" value="get_molecule_input()" style="verticalAlign=bottom;edgeStyle=elbowEdgeStyle;elbow=vertical;curved=0;rounded=0;endArrow=block;" parent="1" source="x1BT2gomkGjuVuvGww1u-3" target="x1BT2gomkGjuVuvGww1u-4" edge="1">
                    <mxGeometry relative="1" as="geometry">
                        <Array as="points">
                            <mxPoint x="509" y="316"/>
                        </Array>
                    </mxGeometry>
                </mxCell>
                <mxCell id="x1BT2gomkGjuVuvGww1u-19" value="Display input method options" style="verticalAlign=bottom;edgeStyle=elbowEdgeStyle;elbow=vertical;curved=0;rounded=0;endArrow=block;" parent="1" source="x1BT2gomkGjuVuvGww1u-4" target="x1BT2gomkGjuVuvGww1u-2" edge="1">
                    <mxGeometry relative="1" as="geometry">
                        <Array as="points">
                            <mxPoint x="376" y="370"/>
                        </Array>
                    </mxGeometry>
                </mxCell>
                <mxCell id="x1BT2gomkGjuVuvGww1u-20" value="Select input method (SMILES/SDF/Editor)" style="verticalAlign=bottom;edgeStyle=elbowEdgeStyle;elbow=vertical;curved=0;rounded=0;endArrow=block;" parent="1" source="x1BT2gomkGjuVuvGww1u-2" target="x1BT2gomkGjuVuvGww1u-4" edge="1">
                    <mxGeometry relative="1" as="geometry">
                        <Array as="points">
                            <mxPoint x="373" y="424"/>
                        </Array>
                    </mxGeometry>
                </mxCell>
                <mxCell id="x1BT2gomkGjuVuvGww1u-21" value="SMILESInputHandler.process_input()" style="verticalAlign=bottom;edgeStyle=elbowEdgeStyle;elbow=vertical;curved=0;rounded=0;endArrow=block;" parent="1" source="x1BT2gomkGjuVuvGww1u-4" target="x1BT2gomkGjuVuvGww1u-5" edge="1">
                    <mxGeometry relative="1" as="geometry">
                        <Array as="points">
                            <mxPoint x="804" y="525"/>
                        </Array>
                    </mxGeometry>
                </mxCell>
                <mxCell id="x1BT2gomkGjuVuvGww1u-22" value="Display SMILES text area" style="verticalAlign=bottom;edgeStyle=elbowEdgeStyle;elbow=vertical;curved=0;rounded=0;endArrow=block;" parent="1" source="x1BT2gomkGjuVuvGww1u-5" target="x1BT2gomkGjuVuvGww1u-2" edge="1">
                    <mxGeometry relative="1" as="geometry">
                        <Array as="points">
                            <mxPoint x="538" y="579"/>
                        </Array>
                    </mxGeometry>
                </mxCell>
                <mxCell id="x1BT2gomkGjuVuvGww1u-23" value="Enter SMILES string" style="verticalAlign=bottom;edgeStyle=elbowEdgeStyle;elbow=vertical;curved=0;rounded=0;endArrow=block;" parent="1" source="x1BT2gomkGjuVuvGww1u-2" target="x1BT2gomkGjuVuvGww1u-5" edge="1">
                    <mxGeometry relative="1" as="geometry">
                        <Array as="points">
                            <mxPoint x="535" y="633"/>
                        </Array>
                    </mxGeometry>
                </mxCell>
                <mxCell id="x1BT2gomkGjuVuvGww1u-24" value="validate_smiles(smiles)" style="verticalAlign=bottom;edgeStyle=elbowEdgeStyle;elbow=vertical;curved=0;rounded=0;endArrow=block;" parent="1" source="x1BT2gomkGjuVuvGww1u-5" target="x1BT2gomkGjuVuvGww1u-6" edge="1">
                    <mxGeometry relative="1" as="geometry">
                        <Array as="points">
                            <mxPoint x="1124" y="687"/>
                        </Array>
                    </mxGeometry>
                </mxCell>
                <mxCell id="x1BT2gomkGjuVuvGww1u-25" value="validation result" style="verticalAlign=bottom;edgeStyle=elbowEdgeStyle;elbow=vertical;curved=0;rounded=0;dashed=1;dashPattern=2 3;endArrow=block;" parent="1" source="x1BT2gomkGjuVuvGww1u-6" target="x1BT2gomkGjuVuvGww1u-5" edge="1">
                    <mxGeometry relative="1" as="geometry">
                        <Array as="points">
                            <mxPoint x="1127" y="741"/>
                        </Array>
                    </mxGeometry>
                </mxCell>
                <mxCell id="x1BT2gomkGjuVuvGww1u-26" value="(smiles, &quot;SMILES Input&quot;)" style="verticalAlign=bottom;edgeStyle=elbowEdgeStyle;elbow=vertical;curved=0;rounded=0;dashed=1;dashPattern=2 3;endArrow=block;" parent="1" source="x1BT2gomkGjuVuvGww1u-5" target="x1BT2gomkGjuVuvGww1u-4" edge="1">
                    <mxGeometry relative="1" as="geometry">
                        <Array as="points">
                            <mxPoint x="807" y="795"/>
                        </Array>
                    </mxGeometry>
                </mxCell>
                <mxCell id="x1BT2gomkGjuVuvGww1u-27" value="SDFInputHandler.process_input()" style="verticalAlign=bottom;edgeStyle=elbowEdgeStyle;elbow=vertical;curved=0;rounded=0;endArrow=block;" parent="1" source="x1BT2gomkGjuVuvGww1u-4" target="x1BT2gomkGjuVuvGww1u-5" edge="1">
                    <mxGeometry relative="1" as="geometry">
                        <Array as="points">
                            <mxPoint x="804" y="896"/>
                        </Array>
                    </mxGeometry>
                </mxCell>
                <mxCell id="x1BT2gomkGjuVuvGww1u-28" value="Display file uploader" style="verticalAlign=bottom;edgeStyle=elbowEdgeStyle;elbow=vertical;curved=0;rounded=0;endArrow=block;" parent="1" source="x1BT2gomkGjuVuvGww1u-5" target="x1BT2gomkGjuVuvGww1u-2" edge="1">
                    <mxGeometry relative="1" as="geometry">
                        <Array as="points">
                            <mxPoint x="538" y="950"/>
                        </Array>
                    </mxGeometry>
                </mxCell>
                <mxCell id="x1BT2gomkGjuVuvGww1u-29" value="Upload SDF file" style="verticalAlign=bottom;edgeStyle=elbowEdgeStyle;elbow=vertical;curved=0;rounded=0;endArrow=block;" parent="1" source="x1BT2gomkGjuVuvGww1u-2" target="x1BT2gomkGjuVuvGww1u-5" edge="1">
                    <mxGeometry relative="1" as="geometry">
                        <Array as="points">
                            <mxPoint x="535" y="1004"/>
                        </Array>
                    </mxGeometry>
                </mxCell>
                <mxCell id="x1BT2gomkGjuVuvGww1u-30" value="sdf_to_smiles(content)" style="verticalAlign=bottom;edgeStyle=elbowEdgeStyle;elbow=vertical;curved=0;rounded=0;endArrow=block;" parent="1" source="x1BT2gomkGjuVuvGww1u-5" target="x1BT2gomkGjuVuvGww1u-6" edge="1">
                    <mxGeometry relative="1" as="geometry">
                        <Array as="points">
                            <mxPoint x="1124" y="1058"/>
                        </Array>
                    </mxGeometry>
                </mxCell>
                <mxCell id="x1BT2gomkGjuVuvGww1u-31" value="converted SMILES" style="verticalAlign=bottom;edgeStyle=elbowEdgeStyle;elbow=vertical;curved=0;rounded=0;dashed=1;dashPattern=2 3;endArrow=block;" parent="1" source="x1BT2gomkGjuVuvGww1u-6" target="x1BT2gomkGjuVuvGww1u-5" edge="1">
                    <mxGeometry relative="1" as="geometry">
                        <Array as="points">
                            <mxPoint x="1127" y="1112"/>
                        </Array>
                    </mxGeometry>
                </mxCell>
                <mxCell id="x1BT2gomkGjuVuvGww1u-32" value="(smiles, &quot;SDF File&quot;)" style="verticalAlign=bottom;edgeStyle=elbowEdgeStyle;elbow=vertical;curved=0;rounded=0;dashed=1;dashPattern=2 3;endArrow=block;" parent="1" source="x1BT2gomkGjuVuvGww1u-5" target="x1BT2gomkGjuVuvGww1u-4" edge="1">
                    <mxGeometry relative="1" as="geometry">
                        <Array as="points">
                            <mxPoint x="807" y="1166"/>
                        </Array>
                    </mxGeometry>
                </mxCell>
                <mxCell id="x1BT2gomkGjuVuvGww1u-33" value="EditorInputHandler.process_input()" style="verticalAlign=bottom;edgeStyle=elbowEdgeStyle;elbow=vertical;curved=0;rounded=0;endArrow=block;" parent="1" source="x1BT2gomkGjuVuvGww1u-4" target="x1BT2gomkGjuVuvGww1u-5" edge="1">
                    <mxGeometry relative="1" as="geometry">
                        <Array as="points">
                            <mxPoint x="804" y="1267"/>
                        </Array>
                    </mxGeometry>
                </mxCell>
                <mxCell id="x1BT2gomkGjuVuvGww1u-34" value="Display Ketcher editor" style="verticalAlign=bottom;edgeStyle=elbowEdgeStyle;elbow=vertical;curved=0;rounded=0;endArrow=block;" parent="1" source="x1BT2gomkGjuVuvGww1u-5" target="x1BT2gomkGjuVuvGww1u-2" edge="1">
                    <mxGeometry relative="1" as="geometry">
                        <Array as="points">
                            <mxPoint x="538" y="1321"/>
                        </Array>
                    </mxGeometry>
                </mxCell>
                <mxCell id="x1BT2gomkGjuVuvGww1u-35" value="Draw molecule structure" style="verticalAlign=bottom;edgeStyle=elbowEdgeStyle;elbow=vertical;curved=0;rounded=0;endArrow=block;" parent="1" source="x1BT2gomkGjuVuvGww1u-2" target="x1BT2gomkGjuVuvGww1u-5" edge="1">
                    <mxGeometry relative="1" as="geometry">
                        <Array as="points">
                            <mxPoint x="535" y="1375"/>
                        </Array>
                    </mxGeometry>
                </mxCell>
                <mxCell id="x1BT2gomkGjuVuvGww1u-36" value="process_editor_molecule(molecule)" style="verticalAlign=bottom;edgeStyle=elbowEdgeStyle;elbow=vertical;curved=0;rounded=0;endArrow=block;" parent="1" source="x1BT2gomkGjuVuvGww1u-5" target="x1BT2gomkGjuVuvGww1u-6" edge="1">
                    <mxGeometry relative="1" as="geometry">
                        <Array as="points">
                            <mxPoint x="1124" y="1429"/>
                        </Array>
                    </mxGeometry>
                </mxCell>
                <mxCell id="x1BT2gomkGjuVuvGww1u-37" value="validate_smiles(extracted_smiles)" style="curved=1;endArrow=block;rounded=0;" parent="1" source="x1BT2gomkGjuVuvGww1u-6" target="x1BT2gomkGjuVuvGww1u-6" edge="1">
                    <mxGeometry relative="1" as="geometry">
                        <Array as="points">
                            <mxPoint x="1325" y="1483"/>
                            <mxPoint x="1325" y="1513"/>
                        </Array>
                    </mxGeometry>
                </mxCell>
                <mxCell id="x1BT2gomkGjuVuvGww1u-38" value="processed SMILES" style="verticalAlign=bottom;edgeStyle=elbowEdgeStyle;elbow=vertical;curved=0;rounded=0;dashed=1;dashPattern=2 3;endArrow=block;" parent="1" source="x1BT2gomkGjuVuvGww1u-6" target="x1BT2gomkGjuVuvGww1u-5" edge="1">
                    <mxGeometry relative="1" as="geometry">
                        <Array as="points">
                            <mxPoint x="1127" y="1567"/>
                        </Array>
                    </mxGeometry>
                </mxCell>
                <mxCell id="x1BT2gomkGjuVuvGww1u-39" value="(smiles, &quot;Molecule Editor&quot;)" style="verticalAlign=bottom;edgeStyle=elbowEdgeStyle;elbow=vertical;curved=0;rounded=0;dashed=1;dashPattern=2 3;endArrow=block;" parent="1" source="x1BT2gomkGjuVuvGww1u-5" target="x1BT2gomkGjuVuvGww1u-4" edge="1">
                    <mxGeometry relative="1" as="geometry">
                        <Array as="points">
                            <mxPoint x="807" y="1621"/>
                        </Array>
                    </mxGeometry>
                </mxCell>
                <mxCell id="x1BT2gomkGjuVuvGww1u-40" value="(final_smiles, input_method)" style="verticalAlign=bottom;edgeStyle=elbowEdgeStyle;elbow=vertical;curved=0;rounded=0;dashed=1;dashPattern=2 3;endArrow=block;" parent="1" source="x1BT2gomkGjuVuvGww1u-4" target="x1BT2gomkGjuVuvGww1u-3" edge="1">
                    <mxGeometry relative="1" as="geometry">
                        <Array as="points">
                            <mxPoint x="512" y="1685"/>
                        </Array>
                    </mxGeometry>
                </mxCell>
                <mxCell id="x1BT2gomkGjuVuvGww1u-41" value="display_molecule_info(smiles, method)" style="verticalAlign=bottom;edgeStyle=elbowEdgeStyle;elbow=vertical;curved=0;rounded=0;endArrow=block;" parent="1" source="x1BT2gomkGjuVuvGww1u-3" target="x1BT2gomkGjuVuvGww1u-9" edge="1">
                    <mxGeometry relative="1" as="geometry">
                        <Array as="points">
                            <mxPoint x="1161" y="1788"/>
                        </Array>
                    </mxGeometry>
                </mxCell>
                <mxCell id="x1BT2gomkGjuVuvGww1u-42" value="draw_molecule(smiles)" style="verticalAlign=bottom;edgeStyle=elbowEdgeStyle;elbow=vertical;curved=0;rounded=0;endArrow=block;" parent="1" source="x1BT2gomkGjuVuvGww1u-9" target="x1BT2gomkGjuVuvGww1u-6" edge="1">
                    <mxGeometry relative="1" as="geometry">
                        <Array as="points">
                            <mxPoint x="1618" y="1842"/>
                        </Array>
                    </mxGeometry>
                </mxCell>
                <mxCell id="x1BT2gomkGjuVuvGww1u-43" value="HTML image" style="verticalAlign=bottom;edgeStyle=elbowEdgeStyle;elbow=vertical;curved=0;rounded=0;dashed=1;dashPattern=2 3;endArrow=block;" parent="1" source="x1BT2gomkGjuVuvGww1u-6" target="x1BT2gomkGjuVuvGww1u-9" edge="1">
                    <mxGeometry relative="1" as="geometry">
                        <Array as="points">
                            <mxPoint x="1615" y="1896"/>
                        </Array>
                    </mxGeometry>
                </mxCell>
                <mxCell id="x1BT2gomkGjuVuvGww1u-44" value="get_molecule_properties(smiles)" style="verticalAlign=bottom;edgeStyle=elbowEdgeStyle;elbow=vertical;curved=0;rounded=0;endArrow=block;" parent="1" source="x1BT2gomkGjuVuvGww1u-9" target="x1BT2gomkGjuVuvGww1u-6" edge="1">
                    <mxGeometry relative="1" as="geometry">
                        <Array as="points">
                            <mxPoint x="1618" y="1950"/>
                        </Array>
                    </mxGeometry>
                </mxCell>
                <mxCell id="x1BT2gomkGjuVuvGww1u-45" value="properties dict" style="verticalAlign=bottom;edgeStyle=elbowEdgeStyle;elbow=vertical;curved=0;rounded=0;dashed=1;dashPattern=2 3;endArrow=block;" parent="1" source="x1BT2gomkGjuVuvGww1u-6" target="x1BT2gomkGjuVuvGww1u-9" edge="1">
                    <mxGeometry relative="1" as="geometry">
                        <Array as="points">
                            <mxPoint x="1615" y="2004"/>
                        </Array>
                    </mxGeometry>
                </mxCell>
                <mxCell id="x1BT2gomkGjuVuvGww1u-46" value="Display molecule structure &amp; properties" style="verticalAlign=bottom;edgeStyle=elbowEdgeStyle;elbow=vertical;curved=0;rounded=0;endArrow=block;" parent="1" source="x1BT2gomkGjuVuvGww1u-9" target="x1BT2gomkGjuVuvGww1u-2" edge="1">
                    <mxGeometry relative="1" as="geometry">
                        <Array as="points">
                            <mxPoint x="1028" y="2058"/>
                        </Array>
                    </mxGeometry>
                </mxCell>
                <mxCell id="x1BT2gomkGjuVuvGww1u-47" value="display_parameters_section()" style="verticalAlign=bottom;edgeStyle=elbowEdgeStyle;elbow=vertical;curved=0;rounded=0;endArrow=block;" parent="1" source="x1BT2gomkGjuVuvGww1u-3" target="x1BT2gomkGjuVuvGww1u-9" edge="1">
                    <mxGeometry relative="1" as="geometry">
                        <Array as="points">
                            <mxPoint x="1161" y="2161"/>
                        </Array>
                    </mxGeometry>
                </mxCell>
                <mxCell id="x1BT2gomkGjuVuvGww1u-48" value="Display parameter selection" style="verticalAlign=bottom;edgeStyle=elbowEdgeStyle;elbow=vertical;curved=0;rounded=0;endArrow=block;" parent="1" source="x1BT2gomkGjuVuvGww1u-9" target="x1BT2gomkGjuVuvGww1u-2" edge="1">
                    <mxGeometry relative="1" as="geometry">
                        <Array as="points">
                            <mxPoint x="1028" y="2215"/>
                        </Array>
                    </mxGeometry>
                </mxCell>
                <mxCell id="x1BT2gomkGjuVuvGww1u-49" value="Select target property (pKa/logP)" style="verticalAlign=bottom;edgeStyle=elbowEdgeStyle;elbow=vertical;curved=0;rounded=0;endArrow=block;" parent="1" source="x1BT2gomkGjuVuvGww1u-2" target="x1BT2gomkGjuVuvGww1u-9" edge="1">
                    <mxGeometry relative="1" as="geometry">
                        <Array as="points">
                            <mxPoint x="1025" y="2269"/>
                        </Array>
                    </mxGeometry>
                </mxCell>
                <mxCell id="x1BT2gomkGjuVuvGww1u-50" value="target_value" style="verticalAlign=bottom;edgeStyle=elbowEdgeStyle;elbow=vertical;curved=0;rounded=0;dashed=1;dashPattern=2 3;endArrow=block;" parent="1" source="x1BT2gomkGjuVuvGww1u-9" target="x1BT2gomkGjuVuvGww1u-3" edge="1">
                    <mxGeometry relative="1" as="geometry">
                        <Array as="points">
                            <mxPoint x="1164" y="2323"/>
                        </Array>
                    </mxGeometry>
                </mxCell>
                <mxCell id="x1BT2gomkGjuVuvGww1u-51" value="Click &quot;Run Prediction&quot;" style="verticalAlign=bottom;edgeStyle=elbowEdgeStyle;elbow=vertical;curved=0;rounded=0;endArrow=block;" parent="1" source="x1BT2gomkGjuVuvGww1u-2" target="x1BT2gomkGjuVuvGww1u-3" edge="1">
                    <mxGeometry relative="1" as="geometry">
                        <Array as="points">
                            <mxPoint x="240" y="2377"/>
                        </Array>
                    </mxGeometry>
                </mxCell>
                <mxCell id="x1BT2gomkGjuVuvGww1u-52" value="predict(smiles, target_value)" style="verticalAlign=bottom;edgeStyle=elbowEdgeStyle;elbow=vertical;curved=0;rounded=0;endArrow=block;" parent="1" source="x1BT2gomkGjuVuvGww1u-3" target="x1BT2gomkGjuVuvGww1u-7" edge="1">
                    <mxGeometry relative="1" as="geometry">
                        <Array as="points">
                            <mxPoint x="929" y="2431"/>
                        </Array>
                    </mxGeometry>
                </mxCell>
                <mxCell id="x1BT2gomkGjuVuvGww1u-53" value="create Inference object" style="verticalAlign=bottom;edgeStyle=elbowEdgeStyle;elbow=vertical;curved=0;rounded=0;endArrow=block;" parent="1" source="x1BT2gomkGjuVuvGww1u-7" target="x1BT2gomkGjuVuvGww1u-8" edge="1">
                    <mxGeometry relative="1" as="geometry">
                        <Array as="points">
                            <mxPoint x="1615" y="2485"/>
                        </Array>
                    </mxGeometry>
                </mxCell>
                <mxCell id="x1BT2gomkGjuVuvGww1u-54" value="inference.predict()" style="verticalAlign=bottom;edgeStyle=elbowEdgeStyle;elbow=vertical;curved=0;rounded=0;endArrow=block;" parent="1" source="x1BT2gomkGjuVuvGww1u-7" target="x1BT2gomkGjuVuvGww1u-8" edge="1">
                    <mxGeometry relative="1" as="geometry">
                        <Array as="points">
                            <mxPoint x="1615" y="2539"/>
                        </Array>
                    </mxGeometry>
                </mxCell>
                <mxCell id="x1BT2gomkGjuVuvGww1u-55" value="prediction result" style="verticalAlign=bottom;edgeStyle=elbowEdgeStyle;elbow=vertical;curved=0;rounded=0;dashed=1;dashPattern=2 3;endArrow=block;" parent="1" source="x1BT2gomkGjuVuvGww1u-8" target="x1BT2gomkGjuVuvGww1u-7" edge="1">
                    <mxGeometry relative="1" as="geometry">
                        <Array as="points">
                            <mxPoint x="1618" y="2593"/>
                        </Array>
                    </mxGeometry>
                </mxCell>
                <mxCell id="x1BT2gomkGjuVuvGww1u-56" value="prediction dict" style="verticalAlign=bottom;edgeStyle=elbowEdgeStyle;elbow=vertical;curved=0;rounded=0;dashed=1;dashPattern=2 3;endArrow=block;" parent="1" source="x1BT2gomkGjuVuvGww1u-7" target="x1BT2gomkGjuVuvGww1u-3" edge="1">
                    <mxGeometry relative="1" as="geometry">
                        <Array as="points">
                            <mxPoint x="932" y="2647"/>
                        </Array>
                    </mxGeometry>
                </mxCell>
                <mxCell id="x1BT2gomkGjuVuvGww1u-57" value="store in session_state" style="curved=1;endArrow=block;rounded=0;" parent="1" source="x1BT2gomkGjuVuvGww1u-3" target="x1BT2gomkGjuVuvGww1u-3" edge="1">
                    <mxGeometry relative="1" as="geometry">
                        <Array as="points">
                            <mxPoint x="418" y="2701"/>
                            <mxPoint x="418" y="2731"/>
                        </Array>
                    </mxGeometry>
                </mxCell>
                <mxCell id="x1BT2gomkGjuVuvGww1u-58" value="display_prediction_result(result)" style="verticalAlign=bottom;edgeStyle=elbowEdgeStyle;elbow=vertical;curved=0;rounded=0;endArrow=block;" parent="1" source="x1BT2gomkGjuVuvGww1u-3" target="x1BT2gomkGjuVuvGww1u-9" edge="1">
                    <mxGeometry relative="1" as="geometry">
                        <Array as="points">
                            <mxPoint x="1161" y="2785"/>
                        </Array>
                    </mxGeometry>
                </mxCell>
                <mxCell id="x1BT2gomkGjuVuvGww1u-59" value="Display prediction value &amp; details" style="verticalAlign=bottom;edgeStyle=elbowEdgeStyle;elbow=vertical;curved=0;rounded=0;endArrow=block;" parent="1" source="x1BT2gomkGjuVuvGww1u-9" target="x1BT2gomkGjuVuvGww1u-2" edge="1">
                    <mxGeometry relative="1" as="geometry">
                        <Array as="points">
                            <mxPoint x="1028" y="2839"/>
                        </Array>
                    </mxGeometry>
                </mxCell>
                <mxCell id="x1BT2gomkGjuVuvGww1u-60" value="Click &quot;Calculate 3D Features&quot;" style="verticalAlign=bottom;edgeStyle=elbowEdgeStyle;elbow=vertical;curved=0;rounded=0;endArrow=block;" parent="1" source="x1BT2gomkGjuVuvGww1u-2" target="x1BT2gomkGjuVuvGww1u-3" edge="1">
                    <mxGeometry relative="1" as="geometry">
                        <Array as="points">
                            <mxPoint x="240" y="2943"/>
                        </Array>
                    </mxGeometry>
                </mxCell>
                <mxCell id="x1BT2gomkGjuVuvGww1u-61" value="get_3d_features(smiles, target)" style="verticalAlign=bottom;edgeStyle=elbowEdgeStyle;elbow=vertical;curved=0;rounded=0;endArrow=block;" parent="1" source="x1BT2gomkGjuVuvGww1u-3" target="x1BT2gomkGjuVuvGww1u-7" edge="1">
                    <mxGeometry relative="1" as="geometry">
                        <Array as="points">
                            <mxPoint x="929" y="2997"/>
                        </Array>
                    </mxGeometry>
                </mxCell>
                <mxCell id="x1BT2gomkGjuVuvGww1u-62" value="Molecule3DFeaturesService" style="verticalAlign=bottom;edgeStyle=elbowEdgeStyle;elbow=vertical;curved=0;rounded=0;endArrow=block;" parent="1" source="x1BT2gomkGjuVuvGww1u-7" target="x1BT2gomkGjuVuvGww1u-8" edge="1">
                    <mxGeometry relative="1" as="geometry">
                        <Array as="points">
                            <mxPoint x="1615" y="3051"/>
                        </Array>
                    </mxGeometry>
                </mxCell>
                <mxCell id="x1BT2gomkGjuVuvGww1u-63" value="3D features dict" style="verticalAlign=bottom;edgeStyle=elbowEdgeStyle;elbow=vertical;curved=0;rounded=0;dashed=1;dashPattern=2 3;endArrow=block;" parent="1" source="x1BT2gomkGjuVuvGww1u-8" target="x1BT2gomkGjuVuvGww1u-7" edge="1">
                    <mxGeometry relative="1" as="geometry">
                        <Array as="points">
                            <mxPoint x="1618" y="3105"/>
                        </Array>
                    </mxGeometry>
                </mxCell>
                <mxCell id="x1BT2gomkGjuVuvGww1u-64" value="features data" style="verticalAlign=bottom;edgeStyle=elbowEdgeStyle;elbow=vertical;curved=0;rounded=0;dashed=1;dashPattern=2 3;endArrow=block;" parent="1" source="x1BT2gomkGjuVuvGww1u-7" target="x1BT2gomkGjuVuvGww1u-3" edge="1">
                    <mxGeometry relative="1" as="geometry">
                        <Array as="points">
                            <mxPoint x="932" y="3159"/>
                        </Array>
                    </mxGeometry>
                </mxCell>
                <mxCell id="x1BT2gomkGjuVuvGww1u-65" value="store features in session_state" style="curved=1;endArrow=block;rounded=0;" parent="1" source="x1BT2gomkGjuVuvGww1u-3" target="x1BT2gomkGjuVuvGww1u-3" edge="1">
                    <mxGeometry relative="1" as="geometry">
                        <Array as="points">
                            <mxPoint x="418" y="3213"/>
                            <mxPoint x="418" y="3243"/>
                        </Array>
                    </mxGeometry>
                </mxCell>
                <mxCell id="x1BT2gomkGjuVuvGww1u-66" value="display_3d_features(features)" style="verticalAlign=bottom;edgeStyle=elbowEdgeStyle;elbow=vertical;curved=0;rounded=0;endArrow=block;" parent="1" source="x1BT2gomkGjuVuvGww1u-3" target="x1BT2gomkGjuVuvGww1u-9" edge="1">
                    <mxGeometry relative="1" as="geometry">
                        <Array as="points">
                            <mxPoint x="1161" y="3297"/>
                        </Array>
                    </mxGeometry>
                </mxCell>
                <mxCell id="x1BT2gomkGjuVuvGww1u-67" value="Display feature tables &amp; download option" style="verticalAlign=bottom;edgeStyle=elbowEdgeStyle;elbow=vertical;curved=0;rounded=0;endArrow=block;" parent="1" source="x1BT2gomkGjuVuvGww1u-9" target="x1BT2gomkGjuVuvGww1u-2" edge="1">
                    <mxGeometry relative="1" as="geometry">
                        <Array as="points">
                            <mxPoint x="1028" y="3351"/>
                        </Array>
                    </mxGeometry>
                </mxCell>
                <mxCell id="x1BT2gomkGjuVuvGww1u-68" value="Click download button" style="verticalAlign=bottom;edgeStyle=elbowEdgeStyle;elbow=vertical;curved=0;rounded=0;endArrow=block;" parent="1" source="x1BT2gomkGjuVuvGww1u-2" target="x1BT2gomkGjuVuvGww1u-9" edge="1">
                    <mxGeometry relative="1" as="geometry">
                        <Array as="points">
                            <mxPoint x="1025" y="3452"/>
                        </Array>
                    </mxGeometry>
                </mxCell>
                <mxCell id="x1BT2gomkGjuVuvGww1u-69" value="Provide JSON file" style="verticalAlign=bottom;edgeStyle=elbowEdgeStyle;elbow=vertical;curved=0;rounded=0;endArrow=block;" parent="1" source="x1BT2gomkGjuVuvGww1u-9" target="x1BT2gomkGjuVuvGww1u-2" edge="1">
                    <mxGeometry relative="1" as="geometry">
                        <Array as="points">
                            <mxPoint x="1028" y="3506"/>
                        </Array>
                    </mxGeometry>
                </mxCell>
                <mxCell id="x1BT2gomkGjuVuvGww1u-70" value="Molecule Input Phase" style="fillColor=#ffff88;strokeColor=#9E916F;" parent="1" vertex="1">
                    <mxGeometry x="70" y="95" width="1893" height="49" as="geometry"/>
                </mxCell>
                <mxCell id="x1BT2gomkGjuVuvGww1u-71" value="Molecule Display Phase" style="fillColor=#ffff88;strokeColor=#9E916F;" parent="1" vertex="1">
                    <mxGeometry x="342" y="1705" width="1621" height="49" as="geometry"/>
                </mxCell>
                <mxCell id="x1BT2gomkGjuVuvGww1u-72" value="Prediction Phase" style="fillColor=#ffff88;strokeColor=#9E916F;" parent="1" vertex="1">
                    <mxGeometry x="70" y="2078" width="1893" height="49" as="geometry"/>
                </mxCell>
                <mxCell id="x1BT2gomkGjuVuvGww1u-73" value="3D Features Phase (Optional)" style="fillColor=#ffff88;strokeColor=#9E916F;" parent="1" vertex="1">
                    <mxGeometry x="70" y="2859" width="1893" height="50" as="geometry"/>
                </mxCell>
            </root>
        </mxGraphModel>
    </diagram>
</mxfile>